<?xml version="1.0" encoding="UTF-8"?>
<svg width="53px" height="53px" viewBox="0 0 53 53" version="1.1" xmlns="http://www.w3.org/2000/svg" xmlns:xlink="http://www.w3.org/1999/xlink">
    <!-- Generator: Sketch 39.1 (31720) - http://www.bohemiancoding.com/sketch -->
    <title>Shape</title>
    <desc>Created with Sketch.</desc>
    <defs></defs>
    <g id="Page-1" stroke="none" stroke-width="1" fill="none" fill-rule="evenodd">
        <g id="search" transform="translate(-1.000000, 0.000000)" fill="#FFFFFF">
            <path d="M52.4087774,48.7571564 L38.6845495,33.688282 C42.4745495,29.887282 42.983,26.779 42.983,21 C42.983,9.42 33.563,0 21.983,0 C21.3248828,0 20.6737422,0.0304256761 20.0309109,0.0899443643 C9.36270654,1.07769573 0.983,10.0781172 0.983,21 C0.983,32.58 10.403,42 21.983,42 C27.066,42 31.731,40.183 35.367,37.168 L50.262,52.659 C50.458,52.864 50.72,52.966 50.983,52.966 C51.233,52.966 51.482,52.873 51.676,52.687 C52.074,52.304 54.3305914,50.94819 53.9485914,50.55019 L52.4087774,48.7571564 Z M21.983,38 C12.6088421,38 4.983,30.3741579 4.983,21 C4.983,11.6258421 12.6088421,4 21.983,4 C31.3571579,4 38.983,11.6258421 38.983,21 C38.983,30.3741579 31.3562632,38 21.983,38 L21.983,38 Z" id="Shape"></path>
        </g>
    </g>
</svg>